<svg xmlns="http://www.w3.org/2000/svg" width="512" height="512" viewBox="0 0 512 512">
<defs><radialGradient id="bg" cx="0.5" cy="0.35" r="0.8"><stop offset="0" stop-color="#8fe3ff"/><stop offset="0.6" stop-color="#3b8cff"/><stop offset="1" stop-color="#2a3fb8"/></radialGradient></defs>
<rect width="512" height="512" rx="0" fill="url(#bg)"/>
<rect x="440" y="20" width="30" height="410" rx="6" fill="#ffffff" stroke="#1b1530" stroke-width="4"/>
<rect x="440" y="428" width="22" height="4" fill="#1b1530"/>
<rect x="440" y="388" width="12" height="4" fill="#1b1530"/>
<rect x="440" y="348" width="22" height="4" fill="#1b1530"/>
<rect x="440" y="308" width="12" height="4" fill="#1b1530"/>
<rect x="440" y="268" width="22" height="4" fill="#1b1530"/>
<rect x="440" y="228" width="12" height="4" fill="#1b1530"/>
<rect x="440" y="188" width="22" height="4" fill="#1b1530"/>
<rect x="440" y="148" width="12" height="4" fill="#1b1530"/>
<rect x="440" y="108" width="22" height="4" fill="#1b1530"/>
<rect x="440" y="68" width="12" height="4" fill="#1b1530"/>
<rect x="440" y="28" width="22" height="4" fill="#1b1530"/>
<rect y="430" width="512" height="82" fill="#4cc93f" stroke="#1b1530" stroke-width="4"/>
<rect x="321.6" y="214.5" width="8.0" height="217.5" rx="0.8" fill="#0039A6" stroke="#1b1530" stroke-width="3.0"/>
<rect x="321.2" y="412.0" width="9.0" height="20.0" rx="6.0" fill="#23232b" stroke="#1b1530" stroke-width="3.0"/>
<rect x="330.2" y="214.5" width="8.0" height="217.5" rx="0.8" fill="#0039A6" stroke="#1b1530" stroke-width="3.0"/>
<rect x="329.8" y="412.0" width="9.0" height="20.0" rx="6.0" fill="#23232b" stroke="#1b1530" stroke-width="3.0"/>
<rect x="321.5" y="57.0" width="17.0" height="157.5" rx="1.4" fill="#D52B1E" stroke="#1b1530" stroke-width="3.0"/>
<text x="330.0" y="61.9" font-size="4.9" text-anchor="middle" fill="#ffffff" font-family="Arial">★</text>
<rect x="313.7" y="59.9" width="8.3" height="65.2" rx="1.2" fill="#D52B1E" stroke="#1b1530" stroke-width="3.0"/>
<rect x="314.1" y="125.1" width="7.4" height="79.7" rx="1.6" fill="#F5CD30" stroke="#1b1530" stroke-width="3.0"/>
<rect x="338.1" y="59.9" width="8.3" height="65.2" rx="1.2" fill="#D52B1E" stroke="#1b1530" stroke-width="3.0"/>
<rect x="338.5" y="125.1" width="7.4" height="79.7" rx="1.6" fill="#F5CD30" stroke="#1b1530" stroke-width="3.0"/>
<rect x="319.2" y="35.5" width="21.5" height="21.5" rx="6.0" fill="#F5CD30" stroke="#1b1530" stroke-width="3.0"/>
<circle cx="326.3" cy="44.5" r="1.7" fill="#1b1530"/>
<circle cx="333.7" cy="44.5" r="1.7" fill="#1b1530"/>
<path d="M 325.7 49.3 Q 330.0 52.7 334.3 49.3" stroke="#1b1530" stroke-width="1.1" fill="none" stroke-linecap="round"/>
<rect x="81.2" y="424.8" width="56.4" height="7.2" rx="5.8" fill="#0039A6" stroke="#1b1530" stroke-width="3.0"/>
<rect x="78.3" y="430.2" width="63.4" height="1.8" rx="0.5" fill="#23232b" stroke="#1b1530" stroke-width="3.0"/>
<rect x="141.2" y="424.8" width="56.4" height="7.2" rx="5.8" fill="#0039A6" stroke="#1b1530" stroke-width="3.0"/>
<rect x="138.3" y="430.2" width="63.4" height="1.8" rx="0.5" fill="#23232b" stroke="#1b1530" stroke-width="3.0"/>
<rect x="80.0" y="408.0" width="120.0" height="16.8" rx="9.6" fill="#D52B1E" stroke="#1b1530" stroke-width="3.0"/>
<text x="140.0" y="412.8" font-size="4.8" text-anchor="middle" fill="#ffffff" font-family="Arial">★</text>
<rect x="68.0" y="412.4" width="12.9" height="7.0" rx="1.9" fill="#D52B1E" stroke="#1b1530" stroke-width="3.0"/>
<rect x="68.7" y="419.4" width="11.3" height="8.5" rx="2.5" fill="#F5CD30" stroke="#1b1530" stroke-width="3.0"/>
<rect x="199.4" y="412.4" width="12.9" height="7.0" rx="1.9" fill="#D52B1E" stroke="#1b1530" stroke-width="3.0"/>
<rect x="200.0" y="419.4" width="11.3" height="8.5" rx="2.5" fill="#F5CD30" stroke="#1b1530" stroke-width="3.0"/>
<rect x="124.2" y="376.5" width="31.5" height="31.5" rx="8.8" fill="#F5CD30" stroke="#1b1530" stroke-width="3.0"/>
<circle cx="134.6" cy="389.7" r="2.5" fill="#1b1530"/>
<circle cx="145.4" cy="389.7" r="2.5" fill="#1b1530"/>
<path d="M 133.7 396.7 Q 140.0 401.7 146.3 396.7" stroke="#1b1530" stroke-width="1.6" fill="none" stroke-linecap="round"/>
<text x="256.0" y="500.0" font-size="76.0" fill="#ffe23d" text-anchor="middle" font-family="Arial Black, Arial, sans-serif" font-weight="900" stroke="#1b1530" stroke-width="9.1" paint-order="stroke">GET TALL!</text>
</svg>
